<svg width="28" height="11" viewBox="0 0 28 11" fill="none" xmlns="http://www.w3.org/2000/svg">
<path d="M2.28867 10H0.716406C0.670833 10 0.648046 9.97721 0.648046 9.93164L0.67539 0.313477C0.67539 0.277018 0.693619 0.258789 0.730078 0.258789H5.21445C5.26003 0.258789 5.28281 0.277018 5.28281 0.313477V1.89258C5.28281 1.92904 5.26458 1.94727 5.22812 1.94727H2.35703V4.12109H5.22812C5.26458 4.12109 5.28281 4.14388 5.28281 4.18945L5.29648 5.77539C5.29648 5.81185 5.2737 5.83008 5.22812 5.83008H2.35703V9.93164C2.35703 9.97721 2.33424 10 2.28867 10ZM7.8709 10.1367C7.37415 10.1367 6.91615 10.0091 6.49687 9.75391C6.08216 9.4987 5.7472 9.15918 5.49199 8.73535C5.24134 8.30697 5.11602 7.83757 5.11602 7.32715L5.12969 2.89062C5.12969 2.37109 5.25501 1.90397 5.50566 1.48926C5.75176 1.06999 6.08444 0.735026 6.50371 0.484375C6.92298 0.229167 7.37871 0.101562 7.8709 0.101562C8.38131 0.101562 8.83932 0.226888 9.24492 0.477539C9.65508 0.72819 9.9832 1.06543 10.2293 1.48926C10.4799 1.90853 10.6053 2.37565 10.6053 2.89062L10.6189 7.32715C10.6189 7.83757 10.4959 8.30469 10.2498 8.72852C9.99915 9.1569 9.66647 9.4987 9.25176 9.75391C8.83704 10.0091 8.37676 10.1367 7.8709 10.1367ZM7.8709 8.44824C8.15345 8.44824 8.39954 8.33431 8.60918 8.10645C8.81881 7.87402 8.92363 7.61426 8.92363 7.32715L8.90996 2.89062C8.90996 2.58073 8.81198 2.31868 8.61602 2.10449C8.42005 1.8903 8.17168 1.7832 7.8709 1.7832C7.58379 1.7832 7.3377 1.88802 7.13262 2.09766C6.92754 2.30729 6.825 2.57161 6.825 2.89062V7.32715C6.825 7.63249 6.92754 7.89681 7.13262 8.12012C7.3377 8.33887 7.58379 8.44824 7.8709 8.44824ZM13.5557 10.1367C13.0498 10.1367 12.5872 10.0091 12.168 9.75391C11.7533 9.4987 11.4229 9.1569 11.1768 8.72852C10.9352 8.29557 10.8145 7.81478 10.8145 7.28613L10.8281 2.91797C10.8281 2.39844 10.9466 1.92904 11.1836 1.50977C11.4206 1.08594 11.7464 0.746419 12.1611 0.491211C12.5804 0.231445 13.0452 0.101562 13.5557 0.101562C14.0752 0.101562 14.5378 0.226888 14.9434 0.477539C15.3535 0.72819 15.6794 1.06771 15.9209 1.49609C16.167 1.91992 16.29 2.39388 16.29 2.91797V3.56055C16.29 3.59701 16.2718 3.61523 16.2354 3.61523H14.6631C14.6266 3.61523 14.6084 3.59701 14.6084 3.56055V2.91797C14.6084 2.60807 14.5081 2.34147 14.3076 2.11816C14.1071 1.89486 13.8564 1.7832 13.5557 1.7832C13.223 1.7832 12.9678 1.89714 12.79 2.125C12.6123 2.35286 12.5234 2.61719 12.5234 2.91797V7.28613C12.5234 7.62793 12.6237 7.9082 12.8242 8.12695C13.0247 8.34115 13.2686 8.44824 13.5557 8.44824C13.8564 8.44824 14.1071 8.32975 14.3076 8.09277C14.5081 7.85124 14.6084 7.58236 14.6084 7.28613V6.63672C14.6084 6.60026 14.6266 6.58203 14.6631 6.58203H16.249C16.2855 6.58203 16.3037 6.60026 16.3037 6.63672V7.28613C16.3037 7.81022 16.1807 8.28874 15.9346 8.72168C15.6839 9.15007 15.3535 9.49414 14.9434 9.75391C14.5332 10.0091 14.0706 10.1367 13.5557 10.1367ZM19.1994 10.1367C18.7072 10.1367 18.2515 10.0091 17.8322 9.75391C17.413 9.4987 17.078 9.1569 16.8273 8.72852C16.5812 8.29557 16.4582 7.82389 16.4582 7.31348L16.4855 0.313477C16.4855 0.277018 16.5038 0.258789 16.5402 0.258789H18.1125C18.149 0.258789 18.1672 0.277018 18.1672 0.313477V7.31348C18.1672 7.62793 18.2674 7.89681 18.468 8.12012C18.6685 8.33887 18.9123 8.44824 19.1994 8.44824C19.5002 8.44824 19.7508 8.33887 19.9514 8.12012C20.1519 7.89681 20.2521 7.62793 20.2521 7.31348V0.313477C20.2521 0.277018 20.2704 0.258789 20.3068 0.258789H21.8791C21.9156 0.258789 21.9338 0.277018 21.9338 0.313477L21.9611 7.31348C21.9611 7.82845 21.8381 8.30241 21.592 8.73535C21.3413 9.16374 21.0087 9.50553 20.5939 9.76074C20.1792 10.0114 19.7144 10.1367 19.1994 10.1367ZM24.7406 10.1367C24.2439 10.1367 23.7859 10.0091 23.3666 9.75391C22.9519 9.4987 22.6192 9.15918 22.3686 8.73535C22.1225 8.30697 21.9994 7.83757 21.9994 7.32715V6.68457C21.9994 6.63444 22.0222 6.60938 22.0678 6.60938H23.64C23.6765 6.60938 23.6947 6.63444 23.6947 6.68457V7.32715C23.6947 7.63249 23.7973 7.89681 24.0023 8.12012C24.2074 8.33887 24.4535 8.44824 24.7406 8.44824C25.0323 8.44824 25.2807 8.33659 25.4857 8.11328C25.6908 7.88542 25.7934 7.62337 25.7934 7.32715C25.7934 6.98535 25.5701 6.68685 25.1234 6.43164C25.0505 6.38607 24.9548 6.33138 24.8363 6.26758C24.7224 6.19922 24.5857 6.12174 24.4262 6.03516C24.2667 5.94857 24.1117 5.86426 23.9613 5.78223C23.8109 5.69564 23.6651 5.61361 23.5238 5.53613C23.0134 5.23535 22.6329 4.85938 22.3822 4.4082C22.1361 3.95247 22.0131 3.44206 22.0131 2.87695C22.0131 2.35742 22.1407 1.88802 22.3959 1.46875C22.6511 1.05404 22.9838 0.725911 23.3939 0.484375C23.8087 0.238281 24.2576 0.115234 24.7406 0.115234C25.2374 0.115234 25.6931 0.238281 26.1078 0.484375C26.5225 0.735026 26.8529 1.06771 27.099 1.48242C27.3497 1.89714 27.475 2.36198 27.475 2.87695V4.02539C27.475 4.06185 27.4568 4.08008 27.4203 4.08008H25.848C25.8116 4.08008 25.7934 4.06185 25.7934 4.02539L25.7797 2.87695C25.7797 2.54883 25.6771 2.28223 25.4721 2.07715C25.267 1.87207 25.0232 1.76953 24.7406 1.76953C24.4535 1.76953 24.2074 1.87891 24.0023 2.09766C23.7973 2.31641 23.6947 2.57617 23.6947 2.87695C23.6947 3.18229 23.7585 3.4375 23.8861 3.64258C24.0183 3.84766 24.2576 4.04362 24.6039 4.23047C24.6404 4.2487 24.7247 4.29427 24.8568 4.36719C24.989 4.4401 25.1348 4.52214 25.2943 4.61328C25.4584 4.69987 25.6065 4.77962 25.7387 4.85254C25.8708 4.9209 25.9506 4.96191 25.9779 4.97559C26.4428 5.23535 26.8096 5.55436 27.0785 5.93262C27.352 6.31087 27.4887 6.77572 27.4887 7.32715C27.4887 7.86035 27.3656 8.33887 27.1195 8.7627C26.8689 9.18652 26.5362 9.52148 26.1215 9.76758C25.7068 10.0137 25.2465 10.1367 24.7406 10.1367Z" fill="white"/>
</svg>

