<svg width="36" height="36" viewBox="0 0 36 36" fill="none" xmlns="http://www.w3.org/2000/svg">
<path d="M30.3137 4.87084L23.8883 16L14.813 0.281258C15.8474 0.0964484 16.9125 0 18 0C22.7631 0 27.0942 1.85008 30.3137 4.87084Z" fill="#FFA602" fill-opacity="0.8"/>
<path d="M12.7842 0.767269L19.2121 11.9006L1.0597 11.9006C2.97751 6.57497 7.33528 2.41427 12.7842 0.767269Z" fill="#FFA602" fill-opacity="0.8"/>
<path d="M0.468887 13.9006C0.162173 15.2174 0 16.5898 0 18C0 22.4276 1.59857 26.4817 4.25002 29.6169L13.3238 13.9006H0.468887Z" fill="#FFA602" fill-opacity="0.8"/>
<path d="M5.6863 31.1292C8.90583 34.1499 13.2369 36 18 36C19.0875 36 20.1525 35.9036 21.1869 35.7187L12.1117 20L5.6863 31.1292Z" fill="#FFA602" fill-opacity="0.8"/>
<path d="M23.2157 35.2327C28.6647 33.5857 33.0225 29.425 34.9403 24.0994L16.7879 24.0994L23.2157 35.2327Z" fill="#FFA602" fill-opacity="0.8"/>
<path d="M35.5311 22.0994L22.6762 22.0994L31.75 6.38312C34.4014 9.51826 36 13.5724 36 18C36 19.4102 35.8378 20.7826 35.5311 22.0994Z" fill="#FFA602" fill-opacity="0.8"/>
</svg>

