<svg width="36" height="36" viewBox="0 0 36 36" fill="none" xmlns="http://www.w3.org/2000/svg">
<path fill-rule="evenodd" clip-rule="evenodd" d="M18 36C27.9411 36 36 27.9411 36 18C36 8.05887 27.9411 0 18 0C8.05887 0 0 8.05887 0 18C0 27.9411 8.05887 36 18 36ZM13.7128 5.53605L14.2489 5L16.3987 7.14985L15.9136 7.635L24.2938 16.0152L24.1004 16.2086C24.3934 16.5728 24.5688 17.0357 24.5688 17.5396C24.5688 18.0098 24.4161 18.4443 24.1576 18.7963L27.9662 22.6048C28.6658 21.9598 29.325 21.5923 29.5008 21.7681L30.2079 22.4753C30.3837 22.6511 30.0162 23.3102 29.3712 24.0099L29.9121 24.5508C29.9534 24.5411 29.9878 24.5455 30.0088 24.5665C30.0622 24.6199 30.0083 24.7603 29.8884 24.8802C29.7685 25.0001 29.628 25.0541 29.5746 25.0007C29.5537 24.9798 29.5493 24.9456 29.5588 24.9046L29.0209 24.3667C28.2826 25.0733 27.5642 25.4884 27.3795 25.3037L26.6724 24.5966C26.4876 24.4118 26.9027 23.6935 27.6094 22.9552L23.8162 19.162C23.446 19.4755 22.967 19.6646 22.4438 19.6646C21.9399 19.6646 21.477 19.4892 21.1128 19.1962L20.9194 19.3896L16.4192 14.8893L15.7826 15.5259C15.1765 15.9868 14.0971 15.7403 13.2907 14.9308C12.4776 14.1147 12.2347 13.02 12.7094 12.4146C12.6855 12.4345 12.6624 12.4556 12.6402 12.4779C12.0614 13.0589 12.2857 14.2261 13.1413 15.0849C13.9397 15.8864 15.0058 16.136 15.6151 15.6934L14.3188 16.9897V19.1646C12.8728 19.1646 11.6473 20.109 11.2255 21.4146H9.89388L8.42336 22.8851L8.42085 22.8826C7.83596 23.4491 6.6786 23.2212 5.82555 22.3682C4.96678 21.5094 4.74162 20.3422 5.32265 19.7612C5.35836 19.7254 5.39629 19.6928 5.43622 19.6631L13.3146 11.7847L12.5988 11.069L12.6095 11.0778C12.1244 10.4849 12.4401 9.32016 13.3488 8.41827C14.1998 7.57364 15.2803 7.24793 15.9014 7.60881C15.3308 7.10833 14.1566 7.42161 13.2408 8.33053C12.3069 9.25745 11.9938 10.4544 12.537 11.0116L12.0541 11.4945L9.90422 9.34468L10.4116 8.83728L10.7752 9.20085L14.0764 5.89963L13.7128 5.53605ZM19.3188 28.4146H17.3188V22.4146C17.3188 20.7577 15.9757 19.4146 14.3188 19.4146C12.6619 19.4146 11.3188 20.7577 11.3188 22.4146V28.4146H9.3188V30.4146H19.3188V28.4146ZM17.1576 8.08816L16.8531 8.39268L19.8752 11.4147L20.1797 11.1102L17.1576 8.08816ZM30.2297 22.5113C29.9802 22.4036 29.2382 22.8665 28.5054 23.5992C27.7727 24.332 27.3098 25.074 27.4175 25.3236C27.4013 25.3165 27.3871 25.3071 27.3752 25.2952C27.1799 25.0999 27.6543 24.309 28.4347 23.5285C29.2151 22.7481 30.0061 22.2737 30.2014 22.469C30.2133 22.4809 30.2227 22.4951 30.2297 22.5113ZM28.8439 23.8405C28.7534 23.9314 28.7156 24.0425 28.7537 24.0978L28.7506 24.0956L28.7474 24.093L28.7435 24.0894C28.6924 24.0385 28.7291 23.9189 28.8254 23.8221C28.9217 23.7253 29.0412 23.6881 29.0923 23.7389L29.0952 23.7419C29.0972 23.7442 29.099 23.7465 29.1007 23.7489C29.0451 23.7113 28.9343 23.7496 28.8439 23.8405ZM22.3465 17.4246C21.6287 18.1457 21.2361 18.9352 21.4197 19.2565C21.3987 19.2447 21.3797 19.2304 21.3628 19.2136C21.0865 18.9385 21.4821 18.093 22.2464 17.3251C23.0108 16.5572 23.8545 16.1576 24.1308 16.4327C24.1477 16.4494 24.162 16.4683 24.1739 16.4892C23.8516 16.3074 23.0641 16.7036 22.3465 17.4246Z" fill="#FFA602" fill-opacity="0.8"/>
</svg>

