<svg width="24" height="27" viewBox="0 0 24 27" fill="none" xmlns="http://www.w3.org/2000/svg">
<path d="M6.20742 11H4.84805C4.8168 11 4.80117 10.9805 4.80117 10.9414L4.82461 2.69727C4.82461 2.66602 4.84023 2.65039 4.87148 2.65039H7.29727C7.73086 2.65039 8.1293 2.75586 8.49258 2.9668C8.85586 3.17773 9.14492 3.46094 9.35977 3.81641C9.57852 4.17188 9.68789 4.57422 9.68789 5.02344C9.68789 5.31641 9.64297 5.58203 9.55312 5.82031C9.46328 6.05859 9.35781 6.25977 9.23672 6.42383C9.11953 6.58789 9.01211 6.70898 8.91445 6.78711C9.34805 7.26758 9.56484 7.83203 9.56484 8.48047L9.57656 10.9414C9.57656 10.9805 9.55703 11 9.51797 11H8.15859C8.12734 11 8.11172 10.9883 8.11172 10.9648V8.48047C8.11172 8.19141 8.01016 7.94141 7.80703 7.73047C7.60391 7.51953 7.35391 7.41406 7.05703 7.41406H6.26602L6.2543 10.9414C6.2543 10.9805 6.23867 11 6.20742 11ZM7.29727 4.08594H6.26602V5.97266H7.29727C7.54336 5.97266 7.76211 5.88086 7.95352 5.69727C8.14883 5.51367 8.24648 5.28906 8.24648 5.02344C8.24648 4.76953 8.15273 4.55078 7.96523 4.36719C7.77773 4.17969 7.55508 4.08594 7.29727 4.08594ZM11.9648 11.1172C11.5391 11.1172 11.1465 11.0078 10.7871 10.7891C10.4316 10.5703 10.1445 10.2793 9.92578 9.91602C9.71094 9.54883 9.60352 9.14648 9.60352 8.70898L9.61523 4.90625C9.61523 4.46094 9.72266 4.06055 9.9375 3.70508C10.1484 3.3457 10.4336 3.05859 10.793 2.84375C11.1523 2.625 11.543 2.51562 11.9648 2.51562C12.4023 2.51562 12.7949 2.62305 13.1426 2.83789C13.4941 3.05273 13.7754 3.3418 13.9863 3.70508C14.2012 4.06445 14.3086 4.46484 14.3086 4.90625L14.3203 8.70898C14.3203 9.14648 14.2148 9.54688 14.0039 9.91016C13.7891 10.2773 13.5039 10.5703 13.1484 10.7891C12.793 11.0078 12.3984 11.1172 11.9648 11.1172ZM11.9648 9.66992C12.207 9.66992 12.418 9.57227 12.5977 9.37695C12.7773 9.17773 12.8672 8.95508 12.8672 8.70898L12.8555 4.90625C12.8555 4.64062 12.7715 4.41602 12.6035 4.23242C12.4355 4.04883 12.2227 3.95703 11.9648 3.95703C11.7188 3.95703 11.5078 4.04688 11.332 4.22656C11.1562 4.40625 11.0684 4.63281 11.0684 4.90625V8.70898C11.0684 8.9707 11.1562 9.19727 11.332 9.38867C11.5078 9.57617 11.7188 9.66992 11.9648 9.66992ZM16.0465 11H14.6871C14.648 11 14.6285 10.9805 14.6285 10.9414L14.6402 2.69727C14.6402 2.66602 14.6559 2.65039 14.6871 2.65039H16.0348C16.066 2.65039 16.0816 2.66602 16.0816 2.69727L16.0934 10.9414C16.0934 10.9805 16.0777 11 16.0465 11Z" fill="white"/>
<path d="M1.02813 15.43C1.02813 15.1367 1.20146 14.8467 1.54813 14.56C1.89479 14.2667 2.43146 14.12 3.15813 14.12C3.88479 14.12 4.42146 14.29 4.76813 14.63C5.11479 14.97 5.28813 15.3467 5.28813 15.76C5.28813 16.1733 5.17813 16.5233 4.95813 16.81C4.74479 17.09 4.47146 17.2767 4.13813 17.37C4.55146 17.4567 4.90479 17.6367 5.19813 17.91C5.49146 18.1833 5.63813 18.5467 5.63813 19C5.63813 19.6133 5.37479 20.1133 4.84813 20.5C4.32813 20.8867 3.71146 21.08 2.99813 21.08C2.29146 21.08 1.73479 20.9867 1.32813 20.8C0.928125 20.6133 0.728125 20.3833 0.728125 20.11C0.728125 19.8367 0.878125 19.6567 1.17813 19.57C1.37146 20.0767 1.94813 20.33 2.90813 20.33C3.40813 20.33 3.84813 20.2167 4.22813 19.99C4.60813 19.7633 4.79813 19.4533 4.79813 19.06C4.79813 18.66 4.62146 18.3633 4.26813 18.17C3.91479 17.97 3.49146 17.87 2.99813 17.87H2.57813C2.27813 17.87 2.12813 17.75 2.12813 17.51C2.12813 17.25 2.27813 17.12 2.57813 17.12H2.99813C3.41146 17.12 3.75479 17.0167 4.02813 16.81C4.30813 16.5967 4.44813 16.33 4.44813 16.01C4.44813 15.6833 4.33146 15.4133 4.09813 15.2C3.87146 14.98 3.54146 14.87 3.10813 14.87C2.68146 14.87 2.33813 14.96 2.07813 15.14C1.82479 15.32 1.65146 15.5633 1.55813 15.87C1.20479 15.87 1.02813 15.7233 1.02813 15.43ZM6.99008 15.02C7.53008 14.42 8.21341 14.12 9.04008 14.12C9.86675 14.12 10.5467 14.42 11.0801 15.02C11.6134 15.6133 11.8801 16.4667 11.8801 17.58C11.8801 18.6867 11.6101 19.5467 11.0701 20.16C10.5367 20.7733 9.86008 21.08 9.04008 21.08C8.22008 21.08 7.53674 20.7733 6.99008 20.16C6.45008 19.5467 6.18008 18.6867 6.18008 17.58C6.18008 16.4733 6.45008 15.62 6.99008 15.02ZM10.9401 17.61C10.9401 16.7567 10.7567 16.0933 10.3901 15.62C10.0301 15.14 9.57674 14.9 9.03008 14.9C8.48341 14.9 8.03008 15.14 7.67008 15.62C7.31674 16.0933 7.14008 16.7567 7.14008 17.61C7.14008 18.4567 7.30674 19.12 7.64008 19.6C7.97341 20.0733 8.43674 20.31 9.03008 20.31C9.63008 20.31 10.0967 20.0733 10.4301 19.6C10.7701 19.12 10.9401 18.4567 10.9401 17.61ZM13.3944 15.02C13.9344 14.42 14.6177 14.12 15.4444 14.12C16.271 14.12 16.951 14.42 17.4844 15.02C18.0177 15.6133 18.2844 16.4667 18.2844 17.58C18.2844 18.6867 18.0144 19.5467 17.4744 20.16C16.941 20.7733 16.2644 21.08 15.4444 21.08C14.6244 21.08 13.941 20.7733 13.3944 20.16C12.8544 19.5467 12.5844 18.6867 12.5844 17.58C12.5844 16.4733 12.8544 15.62 13.3944 15.02ZM17.3444 17.61C17.3444 16.7567 17.161 16.0933 16.7944 15.62C16.4344 15.14 15.981 14.9 15.4344 14.9C14.8877 14.9 14.4344 15.14 14.0744 15.62C13.721 16.0933 13.5444 16.7567 13.5444 17.61C13.5444 18.4567 13.711 19.12 14.0444 19.6C14.3777 20.0733 14.841 20.31 15.4344 20.31C16.0344 20.31 16.501 20.0733 16.8344 19.6C17.1744 19.12 17.3444 18.4567 17.3444 17.61ZM19.2187 16.07H19.5287C19.6953 16.07 19.832 16.15 19.9387 16.31L21.0687 18.04C21.3553 17.6867 21.7387 17.11 22.2187 16.31C22.3187 16.15 22.4487 16.07 22.6087 16.07H22.7887C22.982 16.07 23.0787 16.1467 23.0787 16.3C23.0787 16.3533 23.0653 16.4033 23.0387 16.45C22.6587 17.0967 22.152 17.79 21.5187 18.53L23.0887 20.62C23.142 20.6933 23.1687 20.76 23.1687 20.82C23.1687 20.94 23.0987 21 22.9587 21H22.5687C22.402 21 22.252 20.9067 22.1187 20.72L20.9887 19.09C20.882 19.1967 20.7587 19.3533 20.6187 19.56C20.4787 19.7667 20.3753 19.9167 20.3087 20.01C20.1087 20.31 19.9487 20.56 19.8287 20.76C19.722 20.92 19.5853 21 19.4187 21H19.2387C19.1587 21 19.092 20.9733 19.0387 20.92C18.9853 20.8667 18.9587 20.81 18.9587 20.75C18.9587 20.6833 18.9787 20.62 19.0187 20.56C19.472 19.8933 19.9887 19.2367 20.5687 18.59L19.0087 16.45C18.9687 16.4033 18.9487 16.35 18.9487 16.29C18.9487 16.23 18.972 16.18 19.0187 16.14C19.072 16.0933 19.1387 16.07 19.2187 16.07Z" fill="white"/>
</svg>

