<svg width="21" height="27" viewBox="0 0 21 27" fill="none" xmlns="http://www.w3.org/2000/svg">
<path d="M6.20742 11H4.84805C4.8168 11 4.80117 10.9805 4.80117 10.9414L4.82461 2.69727C4.82461 2.66602 4.84023 2.65039 4.87148 2.65039H7.29727C7.73086 2.65039 8.1293 2.75586 8.49258 2.9668C8.85586 3.17773 9.14492 3.46094 9.35977 3.81641C9.57852 4.17188 9.68789 4.57422 9.68789 5.02344C9.68789 5.31641 9.64297 5.58203 9.55312 5.82031C9.46328 6.05859 9.35781 6.25977 9.23672 6.42383C9.11953 6.58789 9.01211 6.70898 8.91445 6.78711C9.34805 7.26758 9.56484 7.83203 9.56484 8.48047L9.57656 10.9414C9.57656 10.9805 9.55703 11 9.51797 11H8.15859C8.12734 11 8.11172 10.9883 8.11172 10.9648V8.48047C8.11172 8.19141 8.01016 7.94141 7.80703 7.73047C7.60391 7.51953 7.35391 7.41406 7.05703 7.41406H6.26602L6.2543 10.9414C6.2543 10.9805 6.23867 11 6.20742 11ZM7.29727 4.08594H6.26602V5.97266H7.29727C7.54336 5.97266 7.76211 5.88086 7.95352 5.69727C8.14883 5.51367 8.24648 5.28906 8.24648 5.02344C8.24648 4.76953 8.15273 4.55078 7.96523 4.36719C7.77773 4.17969 7.55508 4.08594 7.29727 4.08594ZM11.9648 11.1172C11.5391 11.1172 11.1465 11.0078 10.7871 10.7891C10.4316 10.5703 10.1445 10.2793 9.92578 9.91602C9.71094 9.54883 9.60352 9.14648 9.60352 8.70898L9.61523 4.90625C9.61523 4.46094 9.72266 4.06055 9.9375 3.70508C10.1484 3.3457 10.4336 3.05859 10.793 2.84375C11.1523 2.625 11.543 2.51562 11.9648 2.51562C12.4023 2.51562 12.7949 2.62305 13.1426 2.83789C13.4941 3.05273 13.7754 3.3418 13.9863 3.70508C14.2012 4.06445 14.3086 4.46484 14.3086 4.90625L14.3203 8.70898C14.3203 9.14648 14.2148 9.54688 14.0039 9.91016C13.7891 10.2773 13.5039 10.5703 13.1484 10.7891C12.793 11.0078 12.3984 11.1172 11.9648 11.1172ZM11.9648 9.66992C12.207 9.66992 12.418 9.57227 12.5977 9.37695C12.7773 9.17773 12.8672 8.95508 12.8672 8.70898L12.8555 4.90625C12.8555 4.64062 12.7715 4.41602 12.6035 4.23242C12.4355 4.04883 12.2227 3.95703 11.9648 3.95703C11.7188 3.95703 11.5078 4.04688 11.332 4.22656C11.1562 4.40625 11.0684 4.63281 11.0684 4.90625V8.70898C11.0684 8.9707 11.1562 9.19727 11.332 9.38867C11.5078 9.57617 11.7188 9.66992 11.9648 9.66992ZM16.0465 11H14.6871C14.648 11 14.6285 10.9805 14.6285 10.9414L14.6402 2.69727C14.6402 2.66602 14.6559 2.65039 14.6871 2.65039H16.0348C16.066 2.65039 16.0816 2.66602 16.0816 2.69727L16.0934 10.9414C16.0934 10.9805 16.0777 11 16.0465 11Z" fill="white"/>
<path d="M1.18324 13.21H2.21324C2.49324 13.21 2.63324 13.33 2.63324 13.57V19.62C2.63324 19.8733 2.49324 20 2.21324 20H2.14324C1.86324 20 1.72324 19.8733 1.72324 19.62V13.96H1.18324C0.909909 13.96 0.773242 13.8367 0.773242 13.59C0.773242 13.3367 0.909909 13.21 1.18324 13.21ZM4.24496 14.02C4.78496 13.42 5.46829 13.12 6.29496 13.12C7.12163 13.12 7.80163 13.42 8.33496 14.02C8.86829 14.6133 9.13496 15.4667 9.13496 16.58C9.13496 17.6867 8.86496 18.5467 8.32496 19.16C7.79163 19.7733 7.11496 20.08 6.29496 20.08C5.47496 20.08 4.79163 19.7733 4.24496 19.16C3.70496 18.5467 3.43496 17.6867 3.43496 16.58C3.43496 15.4733 3.70496 14.62 4.24496 14.02ZM8.19496 16.61C8.19496 15.7567 8.01163 15.0933 7.64496 14.62C7.28496 14.14 6.83163 13.9 6.28496 13.9C5.73829 13.9 5.28496 14.14 4.92496 14.62C4.57163 15.0933 4.39496 15.7567 4.39496 16.61C4.39496 17.4567 4.56163 18.12 4.89496 18.6C5.22829 19.0733 5.69163 19.31 6.28496 19.31C6.88496 19.31 7.35163 19.0733 7.68496 18.6C8.02496 18.12 8.19496 17.4567 8.19496 16.61ZM10.6493 14.02C11.1893 13.42 11.8726 13.12 12.6993 13.12C13.5259 13.12 14.2059 13.42 14.7393 14.02C15.2726 14.6133 15.5393 15.4667 15.5393 16.58C15.5393 17.6867 15.2693 18.5467 14.7293 19.16C14.1959 19.7733 13.5193 20.08 12.6993 20.08C11.8793 20.08 11.1959 19.7733 10.6493 19.16C10.1093 18.5467 9.83926 17.6867 9.83926 16.58C9.83926 15.4733 10.1093 14.62 10.6493 14.02ZM14.5993 16.61C14.5993 15.7567 14.4159 15.0933 14.0493 14.62C13.6893 14.14 13.2359 13.9 12.6893 13.9C12.1426 13.9 11.6893 14.14 11.3293 14.62C10.9759 15.0933 10.7993 15.7567 10.7993 16.61C10.7993 17.4567 10.9659 18.12 11.2993 18.6C11.6326 19.0733 12.0959 19.31 12.6893 19.31C13.2893 19.31 13.7559 19.0733 14.0893 18.6C14.4293 18.12 14.5993 17.4567 14.5993 16.61ZM16.4736 15.07H16.7836C16.9502 15.07 17.0869 15.15 17.1936 15.31L18.3236 17.04C18.6102 16.6867 18.9936 16.11 19.4736 15.31C19.5736 15.15 19.7036 15.07 19.8636 15.07H20.0436C20.2369 15.07 20.3336 15.1467 20.3336 15.3C20.3336 15.3533 20.3202 15.4033 20.2936 15.45C19.9136 16.0967 19.4069 16.79 18.7736 17.53L20.3436 19.62C20.3969 19.6933 20.4236 19.76 20.4236 19.82C20.4236 19.94 20.3536 20 20.2136 20H19.8236C19.6569 20 19.5069 19.9067 19.3736 19.72L18.2436 18.09C18.1369 18.1967 18.0136 18.3533 17.8736 18.56C17.7336 18.7667 17.6302 18.9167 17.5636 19.01C17.3636 19.31 17.2036 19.56 17.0836 19.76C16.9769 19.92 16.8402 20 16.6736 20H16.4936C16.4136 20 16.3469 19.9733 16.2936 19.92C16.2402 19.8667 16.2136 19.81 16.2136 19.75C16.2136 19.6833 16.2336 19.62 16.2736 19.56C16.7269 18.8933 17.2436 18.2367 17.8236 17.59L16.2636 15.45C16.2236 15.4033 16.2036 15.35 16.2036 15.29C16.2036 15.23 16.2269 15.18 16.2736 15.14C16.3269 15.0933 16.3936 15.07 16.4736 15.07Z" fill="white"/>
</svg>

