<svg width="24" height="27" viewBox="0 0 24 27" fill="none" xmlns="http://www.w3.org/2000/svg">
<path d="M6.20742 11H4.84805C4.8168 11 4.80117 10.9805 4.80117 10.9414L4.82461 2.69727C4.82461 2.66602 4.84023 2.65039 4.87148 2.65039H7.29727C7.73086 2.65039 8.1293 2.75586 8.49258 2.9668C8.85586 3.17773 9.14492 3.46094 9.35977 3.81641C9.57852 4.17188 9.68789 4.57422 9.68789 5.02344C9.68789 5.31641 9.64297 5.58203 9.55312 5.82031C9.46328 6.05859 9.35781 6.25977 9.23672 6.42383C9.11953 6.58789 9.01211 6.70898 8.91445 6.78711C9.34805 7.26758 9.56484 7.83203 9.56484 8.48047L9.57656 10.9414C9.57656 10.9805 9.55703 11 9.51797 11H8.15859C8.12734 11 8.11172 10.9883 8.11172 10.9648V8.48047C8.11172 8.19141 8.01016 7.94141 7.80703 7.73047C7.60391 7.51953 7.35391 7.41406 7.05703 7.41406H6.26602L6.2543 10.9414C6.2543 10.9805 6.23867 11 6.20742 11ZM7.29727 4.08594H6.26602V5.97266H7.29727C7.54336 5.97266 7.76211 5.88086 7.95352 5.69727C8.14883 5.51367 8.24648 5.28906 8.24648 5.02344C8.24648 4.76953 8.15273 4.55078 7.96523 4.36719C7.77773 4.17969 7.55508 4.08594 7.29727 4.08594ZM11.9648 11.1172C11.5391 11.1172 11.1465 11.0078 10.7871 10.7891C10.4316 10.5703 10.1445 10.2793 9.92578 9.91602C9.71094 9.54883 9.60352 9.14648 9.60352 8.70898L9.61523 4.90625C9.61523 4.46094 9.72266 4.06055 9.9375 3.70508C10.1484 3.3457 10.4336 3.05859 10.793 2.84375C11.1523 2.625 11.543 2.51562 11.9648 2.51562C12.4023 2.51562 12.7949 2.62305 13.1426 2.83789C13.4941 3.05273 13.7754 3.3418 13.9863 3.70508C14.2012 4.06445 14.3086 4.46484 14.3086 4.90625L14.3203 8.70898C14.3203 9.14648 14.2148 9.54688 14.0039 9.91016C13.7891 10.2773 13.5039 10.5703 13.1484 10.7891C12.793 11.0078 12.3984 11.1172 11.9648 11.1172ZM11.9648 9.66992C12.207 9.66992 12.418 9.57227 12.5977 9.37695C12.7773 9.17773 12.8672 8.95508 12.8672 8.70898L12.8555 4.90625C12.8555 4.64062 12.7715 4.41602 12.6035 4.23242C12.4355 4.04883 12.2227 3.95703 11.9648 3.95703C11.7188 3.95703 11.5078 4.04688 11.332 4.22656C11.1562 4.40625 11.0684 4.63281 11.0684 4.90625V8.70898C11.0684 8.9707 11.1562 9.19727 11.332 9.38867C11.5078 9.57617 11.7188 9.66992 11.9648 9.66992ZM16.0465 11H14.6871C14.648 11 14.6285 10.9805 14.6285 10.9414L14.6402 2.69727C14.6402 2.66602 14.6559 2.65039 14.6871 2.65039H16.0348C16.066 2.65039 16.0816 2.66602 16.0816 2.69727L16.0934 10.9414C16.0934 10.9805 16.0777 11 16.0465 11Z" fill="white"/>
<path d="M1.98137 13.21H5.04137C5.30803 13.21 5.44137 13.3367 5.44137 13.59C5.44137 13.8433 5.30803 13.97 5.04137 13.97H2.28137L2.13137 15.96C2.45137 15.8667 2.85137 15.82 3.33137 15.82C3.99803 15.82 4.5447 15.99 4.97137 16.33C5.39803 16.67 5.61137 17.17 5.61137 17.83C5.61137 18.49 5.36137 19.03 4.86137 19.45C4.36137 19.87 3.7547 20.08 3.04137 20.08C2.3347 20.08 1.79137 19.9933 1.41137 19.82C1.03137 19.64 0.841367 19.39 0.841367 19.07C0.841367 18.83 0.981367 18.6633 1.26137 18.57C1.34803 18.83 1.5547 19.0233 1.88137 19.15C2.2147 19.27 2.6147 19.33 3.08137 19.33C3.5547 19.33 3.9647 19.2 4.31137 18.94C4.65803 18.68 4.83137 18.3267 4.83137 17.88C4.83137 17.4267 4.67803 17.0933 4.37137 16.88C4.07137 16.6667 3.7147 16.56 3.30137 16.56C2.88803 16.56 2.4447 16.63 1.97137 16.77C1.91137 16.79 1.8347 16.8 1.74137 16.8C1.6547 16.8 1.56803 16.76 1.48137 16.68C1.3947 16.5933 1.35137 16.4833 1.35137 16.35L1.57137 13.58C1.5847 13.4467 1.61803 13.3533 1.67137 13.3C1.73137 13.24 1.8347 13.21 1.98137 13.21ZM6.91684 14.02C7.45684 13.42 8.14017 13.12 8.96684 13.12C9.7935 13.12 10.4735 13.42 11.0068 14.02C11.5402 14.6133 11.8068 15.4667 11.8068 16.58C11.8068 17.6867 11.5368 18.5467 10.9968 19.16C10.4635 19.7733 9.78684 20.08 8.96684 20.08C8.14684 20.08 7.4635 19.7733 6.91684 19.16C6.37684 18.5467 6.10684 17.6867 6.10684 16.58C6.10684 15.4733 6.37684 14.62 6.91684 14.02ZM10.8668 16.61C10.8668 15.7567 10.6835 15.0933 10.3168 14.62C9.95684 14.14 9.5035 13.9 8.95684 13.9C8.41017 13.9 7.95684 14.14 7.59684 14.62C7.2435 15.0933 7.06684 15.7567 7.06684 16.61C7.06684 17.4567 7.2335 18.12 7.56684 18.6C7.90017 19.0733 8.3635 19.31 8.95684 19.31C9.55684 19.31 10.0235 19.0733 10.3568 18.6C10.6968 18.12 10.8668 17.4567 10.8668 16.61ZM13.3211 14.02C13.8611 13.42 14.5445 13.12 15.3711 13.12C16.1978 13.12 16.8778 13.42 17.4111 14.02C17.9445 14.6133 18.2111 15.4667 18.2111 16.58C18.2111 17.6867 17.9411 18.5467 17.4011 19.16C16.8678 19.7733 16.1911 20.08 15.3711 20.08C14.5511 20.08 13.8678 19.7733 13.3211 19.16C12.7811 18.5467 12.5111 17.6867 12.5111 16.58C12.5111 15.4733 12.7811 14.62 13.3211 14.02ZM17.2711 16.61C17.2711 15.7567 17.0878 15.0933 16.7211 14.62C16.3611 14.14 15.9078 13.9 15.3611 13.9C14.8145 13.9 14.3611 14.14 14.0011 14.62C13.6478 15.0933 13.4711 15.7567 13.4711 16.61C13.4711 17.4567 13.6378 18.12 13.9711 18.6C14.3045 19.0733 14.7678 19.31 15.3611 19.31C15.9611 19.31 16.4278 19.0733 16.7611 18.6C17.1011 18.12 17.2711 17.4567 17.2711 16.61ZM19.1454 15.07H19.4554C19.6221 15.07 19.7588 15.15 19.8654 15.31L20.9954 17.04C21.2821 16.6867 21.6654 16.11 22.1454 15.31C22.2454 15.15 22.3754 15.07 22.5354 15.07H22.7154C22.9088 15.07 23.0054 15.1467 23.0054 15.3C23.0054 15.3533 22.9921 15.4033 22.9654 15.45C22.5854 16.0967 22.0788 16.79 21.4454 17.53L23.0154 19.62C23.0688 19.6933 23.0954 19.76 23.0954 19.82C23.0954 19.94 23.0254 20 22.8854 20H22.4954C22.3288 20 22.1788 19.9067 22.0454 19.72L20.9154 18.09C20.8088 18.1967 20.6854 18.3533 20.5454 18.56C20.4054 18.7667 20.3021 18.9167 20.2354 19.01C20.0354 19.31 19.8754 19.56 19.7554 19.76C19.6488 19.92 19.5121 20 19.3454 20H19.1654C19.0854 20 19.0188 19.9733 18.9654 19.92C18.9121 19.8667 18.8854 19.81 18.8854 19.75C18.8854 19.6833 18.9054 19.62 18.9454 19.56C19.3988 18.8933 19.9154 18.2367 20.4954 17.59L18.9354 15.45C18.8954 15.4033 18.8754 15.35 18.8754 15.29C18.8754 15.23 18.8988 15.18 18.9454 15.14C18.9988 15.0933 19.0654 15.07 19.1454 15.07Z" fill="white"/>
</svg>

